<?xml version="1.0" encoding="utf-8"?>
<svg fill="none" height="60" viewBox="0 0 60 60" width="60" xmlns="http://www.w3.org/2000/svg">
<rect fill="#1E293B" height="60" rx="10" width="60" x="-1.52588e-05"/>
<path d="M45.4979 37.2315L49.5472 30.4828L42.7984 31.9611L34.0572 25.2124L29.558 37.2315H45.4979Z" fill="#1E293B"/>
<path clip-rule="evenodd" d="M42.1347 32.7146L30.3475 23.8837L18.0784 33L11.4499 31.4473L15.0847 36.7342H45.3242L48.8751 31.2038L42.1347 32.7146ZM54.2275 27.4609L46.68 39.2159H13.7792L5.77148 27.5683L17.5229 30.321L30.3536 20.7874L42.7076 30.0429L54.2275 27.4609Z" fill="white" fill-rule="evenodd"/>
<path d="M34.2089 26.4106L30.6096 23.0042L24.568 26.9248L16.5981 31.6168L7.66406 29.0459L13.4486 36.7587L32.2165 37.1443L34.2089 26.4106Z" fill="white"/>
</svg>
